<svg width="256" height="256" viewBox="0 0 256 256" fill="none" xmlns="http://www.w3.org/2000/svg">
<rect x="155" y="155" width="85.3333" height="85.3333" rx="16" fill="white"/>
<path d="M182.517 215.767C179.585 215.756 177.063 215.034 174.949 213.602C172.847 212.17 171.227 210.097 170.091 207.381C168.966 204.665 168.409 201.398 168.42 197.58C168.42 193.773 168.983 190.528 170.108 187.847C171.244 185.165 172.864 183.125 174.966 181.727C177.08 180.318 179.597 179.614 182.517 179.614C185.438 179.614 187.949 180.318 190.051 181.727C192.165 183.136 193.79 185.182 194.926 187.864C196.063 190.534 196.625 193.773 196.614 197.58C196.614 201.409 196.045 204.682 194.909 207.398C193.784 210.114 192.17 212.187 190.068 213.619C187.966 215.051 185.449 215.767 182.517 215.767ZM182.517 209.648C184.517 209.648 186.114 208.642 187.307 206.631C188.5 204.619 189.091 201.602 189.08 197.58C189.08 194.932 188.807 192.727 188.261 190.966C187.727 189.205 186.966 187.881 185.977 186.994C185 186.108 183.847 185.665 182.517 185.665C180.528 185.665 178.938 186.659 177.744 188.648C176.551 190.636 175.949 193.614 175.938 197.58C175.938 200.261 176.205 202.5 176.739 204.295C177.284 206.08 178.051 207.42 179.04 208.318C180.028 209.205 181.188 209.648 182.517 209.648ZM215.564 215.767C212.632 215.756 210.109 215.034 207.996 213.602C205.893 212.17 204.274 210.097 203.138 207.381C202.013 204.665 201.456 201.398 201.467 197.58C201.467 193.773 202.03 190.528 203.155 187.847C204.291 185.165 205.911 183.125 208.013 181.727C210.126 180.318 212.643 179.614 215.564 179.614C218.484 179.614 220.996 180.318 223.098 181.727C225.212 183.136 226.837 185.182 227.973 187.864C229.109 190.534 229.672 193.773 229.661 197.58C229.661 201.409 229.092 204.682 227.956 207.398C226.831 210.114 225.217 212.187 223.115 213.619C221.013 215.051 218.496 215.767 215.564 215.767ZM215.564 209.648C217.564 209.648 219.161 208.642 220.354 206.631C221.547 204.619 222.138 201.602 222.126 197.58C222.126 194.932 221.854 192.727 221.308 190.966C220.774 189.205 220.013 187.881 219.024 186.994C218.047 186.108 216.893 185.665 215.564 185.665C213.575 185.665 211.984 186.659 210.791 188.648C209.598 190.636 208.996 193.614 208.984 197.58C208.984 200.261 209.251 202.5 209.786 204.295C210.331 206.08 211.098 207.42 212.087 208.318C213.075 209.205 214.234 209.648 215.564 209.648Z" fill="black"/>
</svg>
