<svg width="256" height="256" viewBox="0 0 256 256" fill="none" xmlns="http://www.w3.org/2000/svg">
<rect x="155" y="155" width="85.3333" height="85.3333" rx="16" fill="white"/>
<path d="M185.517 215.767C182.585 215.756 180.063 215.034 177.949 213.602C175.847 212.17 174.227 210.097 173.091 207.381C171.966 204.665 171.409 201.398 171.42 197.58C171.42 193.773 171.983 190.528 173.108 187.847C174.244 185.165 175.864 183.125 177.966 181.727C180.08 180.318 182.597 179.614 185.517 179.614C188.438 179.614 190.949 180.318 193.051 181.727C195.165 183.136 196.79 185.182 197.926 187.864C199.063 190.534 199.625 193.773 199.614 197.58C199.614 201.409 199.045 204.682 197.909 207.398C196.784 210.114 195.17 212.187 193.068 213.619C190.966 215.051 188.449 215.767 185.517 215.767ZM185.517 209.648C187.517 209.648 189.114 208.642 190.307 206.631C191.5 204.619 192.091 201.602 192.08 197.58C192.08 194.932 191.807 192.727 191.261 190.966C190.727 189.205 189.966 187.881 188.977 186.994C188 186.108 186.847 185.665 185.517 185.665C183.528 185.665 181.938 186.659 180.744 188.648C179.551 190.636 178.949 193.614 178.938 197.58C178.938 200.261 179.205 202.5 179.739 204.295C180.284 206.08 181.051 207.42 182.04 208.318C183.028 209.205 184.188 209.648 185.517 209.648ZM220.064 180.091V215H212.683V187.097H212.479L204.484 192.108V185.562L213.126 180.091H220.064Z" fill="black"/>
</svg>
