<svg width="256" height="256" viewBox="0 0 256 256" fill="none" xmlns="http://www.w3.org/2000/svg">
<rect x="155" y="155" width="85.3333" height="85.3333" rx="16" fill="white"/>
<path d="M182.517 215.767C179.585 215.756 177.063 215.034 174.949 213.602C172.847 212.17 171.227 210.097 170.091 207.381C168.966 204.665 168.409 201.398 168.42 197.58C168.42 193.773 168.983 190.528 170.108 187.847C171.244 185.165 172.864 183.125 174.966 181.727C177.08 180.318 179.597 179.614 182.517 179.614C185.438 179.614 187.949 180.318 190.051 181.727C192.165 183.136 193.79 185.182 194.926 187.864C196.063 190.534 196.625 193.773 196.614 197.58C196.614 201.409 196.045 204.682 194.909 207.398C193.784 210.114 192.17 212.187 190.068 213.619C187.966 215.051 185.449 215.767 182.517 215.767ZM182.517 209.648C184.517 209.648 186.114 208.642 187.307 206.631C188.5 204.619 189.091 201.602 189.08 197.58C189.08 194.932 188.807 192.727 188.261 190.966C187.727 189.205 186.966 187.881 185.977 186.994C185 186.108 183.847 185.665 182.517 185.665C180.528 185.665 178.938 186.659 177.744 188.648C176.551 190.636 175.949 193.614 175.938 197.58C175.938 200.261 176.205 202.5 176.739 204.295C177.284 206.08 178.051 207.42 179.04 208.318C180.028 209.205 181.188 209.648 182.517 209.648ZM201.876 215V209.682L214.303 198.176C215.359 197.153 216.246 196.233 216.962 195.415C217.689 194.597 218.24 193.795 218.615 193.011C218.99 192.216 219.178 191.358 219.178 190.438C219.178 189.415 218.945 188.534 218.479 187.795C218.013 187.045 217.376 186.472 216.57 186.074C215.763 185.665 214.848 185.46 213.825 185.46C212.757 185.46 211.825 185.676 211.03 186.108C210.234 186.54 209.621 187.159 209.189 187.966C208.757 188.773 208.541 189.733 208.541 190.847H201.536C201.536 188.562 202.053 186.58 203.087 184.898C204.121 183.216 205.57 181.915 207.433 180.994C209.297 180.074 211.445 179.614 213.876 179.614C216.376 179.614 218.553 180.057 220.405 180.943C222.268 181.818 223.717 183.034 224.751 184.591C225.786 186.148 226.303 187.932 226.303 189.943C226.303 191.261 226.041 192.562 225.518 193.847C225.007 195.131 224.092 196.557 222.774 198.125C221.456 199.682 219.598 201.551 217.2 203.733L212.104 208.727V208.966H226.763V215H201.876Z" fill="black"/>
</svg>
