<svg width="256" height="256" viewBox="0 0 256 256" fill="none" xmlns="http://www.w3.org/2000/svg">
<rect x="155" y="155" width="85.3333" height="85.3333" rx="16" fill="white"/>
<path d="M182.517 215.767C179.585 215.756 177.063 215.034 174.949 213.602C172.847 212.17 171.227 210.097 170.091 207.381C168.966 204.665 168.409 201.398 168.42 197.58C168.42 193.773 168.983 190.528 170.108 187.847C171.244 185.165 172.864 183.125 174.966 181.727C177.08 180.318 179.597 179.614 182.517 179.614C185.438 179.614 187.949 180.318 190.051 181.727C192.165 183.136 193.79 185.182 194.926 187.864C196.063 190.534 196.625 193.773 196.614 197.58C196.614 201.409 196.045 204.682 194.909 207.398C193.784 210.114 192.17 212.187 190.068 213.619C187.966 215.051 185.449 215.767 182.517 215.767ZM182.517 209.648C184.517 209.648 186.114 208.642 187.307 206.631C188.5 204.619 189.091 201.602 189.08 197.58C189.08 194.932 188.807 192.727 188.261 190.966C187.727 189.205 186.966 187.881 185.977 186.994C185 186.108 183.847 185.665 182.517 185.665C180.528 185.665 178.938 186.659 177.744 188.648C176.551 190.636 175.949 193.614 175.938 197.58C175.938 200.261 176.205 202.5 176.739 204.295C177.284 206.08 178.051 207.42 179.04 208.318C180.028 209.205 181.188 209.648 182.517 209.648ZM214.78 215.477C212.234 215.477 209.967 215.04 207.979 214.165C206.001 213.278 204.439 212.062 203.291 210.517C202.155 208.96 201.57 207.165 201.536 205.131H208.967C209.013 205.983 209.291 206.733 209.803 207.381C210.325 208.017 211.018 208.511 211.882 208.864C212.746 209.216 213.717 209.392 214.797 209.392C215.922 209.392 216.916 209.193 217.78 208.795C218.643 208.398 219.32 207.847 219.808 207.142C220.297 206.437 220.541 205.625 220.541 204.705C220.541 203.773 220.28 202.949 219.757 202.233C219.246 201.506 218.507 200.937 217.541 200.528C216.587 200.119 215.45 199.915 214.132 199.915H210.876V194.494H214.132C215.246 194.494 216.229 194.301 217.081 193.915C217.945 193.528 218.615 192.994 219.092 192.312C219.57 191.619 219.808 190.812 219.808 189.892C219.808 189.017 219.598 188.25 219.178 187.591C218.768 186.92 218.189 186.398 217.439 186.023C216.7 185.648 215.837 185.46 214.848 185.46C213.848 185.46 212.933 185.642 212.104 186.006C211.274 186.358 210.609 186.864 210.109 187.523C209.609 188.182 209.342 188.955 209.308 189.841H202.234C202.268 187.83 202.842 186.057 203.956 184.523C205.07 182.989 206.57 181.79 208.456 180.926C210.354 180.051 212.496 179.614 214.882 179.614C217.291 179.614 219.399 180.051 221.206 180.926C223.013 181.801 224.416 182.983 225.416 184.472C226.428 185.949 226.928 187.608 226.916 189.449C226.928 191.403 226.32 193.034 225.092 194.341C223.876 195.648 222.291 196.477 220.337 196.83V197.102C222.905 197.432 224.859 198.324 226.2 199.778C227.553 201.222 228.223 203.028 228.212 205.199C228.223 207.188 227.649 208.955 226.49 210.5C225.342 212.045 223.757 213.261 221.734 214.148C219.712 215.034 217.393 215.477 214.78 215.477Z" fill="black"/>
</svg>
