<svg width="256" height="256" viewBox="0 0 256 256" fill="none" xmlns="http://www.w3.org/2000/svg">
<rect x="155" y="155" width="85.3333" height="85.3333" rx="16" fill="white"/>
<path d="M182.517 215.767C179.585 215.756 177.063 215.034 174.949 213.602C172.847 212.17 171.227 210.097 170.091 207.381C168.966 204.665 168.409 201.398 168.42 197.58C168.42 193.773 168.983 190.528 170.108 187.847C171.244 185.165 172.864 183.125 174.966 181.727C177.08 180.318 179.597 179.614 182.517 179.614C185.438 179.614 187.949 180.318 190.051 181.727C192.165 183.136 193.79 185.182 194.926 187.864C196.063 190.534 196.625 193.773 196.614 197.58C196.614 201.409 196.045 204.682 194.909 207.398C193.784 210.114 192.17 212.187 190.068 213.619C187.966 215.051 185.449 215.767 182.517 215.767ZM182.517 209.648C184.517 209.648 186.114 208.642 187.307 206.631C188.5 204.619 189.091 201.602 189.08 197.58C189.08 194.932 188.807 192.727 188.261 190.966C187.727 189.205 186.966 187.881 185.977 186.994C185 186.108 183.847 185.665 182.517 185.665C180.528 185.665 178.938 186.659 177.744 188.648C176.551 190.636 175.949 193.614 175.938 197.58C175.938 200.261 176.205 202.5 176.739 204.295C177.284 206.08 178.051 207.42 179.04 208.318C180.028 209.205 181.188 209.648 182.517 209.648ZM214.626 215.477C212.217 215.477 210.07 215.034 208.183 214.148C206.308 213.261 204.82 212.04 203.717 210.483C202.615 208.926 202.041 207.142 201.996 205.131H209.155C209.234 206.483 209.803 207.58 210.859 208.42C211.916 209.261 213.172 209.682 214.626 209.682C215.786 209.682 216.808 209.426 217.695 208.915C218.592 208.392 219.291 207.67 219.791 206.75C220.303 205.818 220.558 204.75 220.558 203.545C220.558 202.318 220.297 201.239 219.774 200.307C219.263 199.375 218.553 198.648 217.643 198.125C216.734 197.602 215.695 197.335 214.524 197.324C213.501 197.324 212.507 197.534 211.541 197.955C210.587 198.375 209.842 198.949 209.308 199.676L202.746 198.5L204.399 180.091H225.74V186.125H210.484L209.581 194.869H209.786C210.399 194.006 211.325 193.29 212.564 192.722C213.803 192.153 215.189 191.869 216.723 191.869C218.825 191.869 220.7 192.364 222.348 193.352C223.996 194.341 225.297 195.699 226.251 197.426C227.206 199.142 227.678 201.119 227.666 203.358C227.678 205.71 227.132 207.801 226.03 209.631C224.939 211.449 223.411 212.881 221.445 213.926C219.49 214.96 217.217 215.477 214.626 215.477Z" fill="black"/>
</svg>
