<svg width="256" height="256" viewBox="0 0 256 256" fill="none" xmlns="http://www.w3.org/2000/svg">
<rect x="155" y="155" width="85.3333" height="85.3333" rx="16" fill="white"/>
<path d="M182.517 215.767C179.585 215.756 177.063 215.034 174.949 213.602C172.847 212.17 171.227 210.097 170.091 207.381C168.966 204.665 168.409 201.398 168.42 197.58C168.42 193.773 168.983 190.528 170.108 187.847C171.244 185.165 172.864 183.125 174.966 181.727C177.08 180.318 179.597 179.614 182.517 179.614C185.438 179.614 187.949 180.318 190.051 181.727C192.165 183.136 193.79 185.182 194.926 187.864C196.063 190.534 196.625 193.773 196.614 197.58C196.614 201.409 196.045 204.682 194.909 207.398C193.784 210.114 192.17 212.187 190.068 213.619C187.966 215.051 185.449 215.767 182.517 215.767ZM182.517 209.648C184.517 209.648 186.114 208.642 187.307 206.631C188.5 204.619 189.091 201.602 189.08 197.58C189.08 194.932 188.807 192.727 188.261 190.966C187.727 189.205 186.966 187.881 185.977 186.994C185 186.108 183.847 185.665 182.517 185.665C180.528 185.665 178.938 186.659 177.744 188.648C176.551 190.636 175.949 193.614 175.938 197.58C175.938 200.261 176.205 202.5 176.739 204.295C177.284 206.08 178.051 207.42 179.04 208.318C180.028 209.205 181.188 209.648 182.517 209.648ZM215.274 215.477C213.479 215.466 211.746 215.165 210.075 214.574C208.416 213.983 206.928 213.023 205.609 211.693C204.291 210.364 203.246 208.602 202.473 206.409C201.712 204.216 201.331 201.523 201.331 198.33C201.342 195.398 201.678 192.778 202.337 190.472C203.007 188.153 203.962 186.187 205.2 184.574C206.45 182.96 207.945 181.733 209.683 180.892C211.422 180.04 213.371 179.614 215.53 179.614C217.859 179.614 219.916 180.068 221.7 180.977C223.484 181.875 224.916 183.097 225.996 184.642C227.087 186.188 227.746 187.92 227.973 189.841H220.695C220.411 188.625 219.814 187.67 218.905 186.977C217.996 186.284 216.871 185.938 215.53 185.938C213.257 185.938 211.53 186.926 210.348 188.903C209.178 190.881 208.581 193.568 208.558 196.966H208.797C209.32 195.932 210.024 195.051 210.911 194.324C211.808 193.585 212.825 193.023 213.962 192.636C215.109 192.239 216.32 192.04 217.592 192.04C219.661 192.04 221.501 192.528 223.115 193.506C224.729 194.472 226.001 195.801 226.933 197.494C227.865 199.187 228.331 201.125 228.331 203.307C228.331 205.67 227.78 207.773 226.678 209.614C225.587 211.455 224.058 212.898 222.092 213.943C220.138 214.977 217.865 215.489 215.274 215.477ZM215.24 209.682C216.376 209.682 217.393 209.409 218.291 208.864C219.189 208.318 219.893 207.58 220.405 206.648C220.916 205.716 221.172 204.67 221.172 203.511C221.172 202.352 220.916 201.312 220.405 200.392C219.905 199.472 219.212 198.739 218.325 198.193C217.439 197.648 216.428 197.375 215.291 197.375C214.439 197.375 213.649 197.534 212.922 197.852C212.206 198.17 211.575 198.614 211.03 199.182C210.496 199.75 210.075 200.409 209.768 201.159C209.462 201.898 209.308 202.687 209.308 203.528C209.308 204.653 209.564 205.682 210.075 206.614C210.598 207.545 211.303 208.29 212.189 208.847C213.087 209.403 214.104 209.682 215.24 209.682Z" fill="black"/>
</svg>
