<svg width="256" height="256" viewBox="0 0 256 256" fill="none" xmlns="http://www.w3.org/2000/svg">
<rect x="155" y="155" width="85.3333" height="85.3333" rx="16" fill="white"/>
<path d="M182.517 215.767C179.585 215.756 177.063 215.034 174.949 213.602C172.847 212.17 171.227 210.097 170.091 207.381C168.966 204.665 168.409 201.398 168.42 197.58C168.42 193.773 168.983 190.528 170.108 187.847C171.244 185.165 172.864 183.125 174.966 181.727C177.08 180.318 179.597 179.614 182.517 179.614C185.438 179.614 187.949 180.318 190.051 181.727C192.165 183.136 193.79 185.182 194.926 187.864C196.063 190.534 196.625 193.773 196.614 197.58C196.614 201.409 196.045 204.682 194.909 207.398C193.784 210.114 192.17 212.187 190.068 213.619C187.966 215.051 185.449 215.767 182.517 215.767ZM182.517 209.648C184.517 209.648 186.114 208.642 187.307 206.631C188.5 204.619 189.091 201.602 189.08 197.58C189.08 194.932 188.807 192.727 188.261 190.966C187.727 189.205 186.966 187.881 185.977 186.994C185 186.108 183.847 185.665 182.517 185.665C180.528 185.665 178.938 186.659 177.744 188.648C176.551 190.636 175.949 193.614 175.938 197.58C175.938 200.261 176.205 202.5 176.739 204.295C177.284 206.08 178.051 207.42 179.04 208.318C180.028 209.205 181.188 209.648 182.517 209.648ZM214.899 215.477C212.274 215.477 209.939 215.051 207.893 214.199C205.859 213.335 204.263 212.159 203.104 210.67C201.945 209.182 201.365 207.494 201.365 205.608C201.365 204.153 201.695 202.818 202.354 201.602C203.024 200.375 203.933 199.358 205.081 198.551C206.229 197.733 207.513 197.21 208.933 196.983V196.744C207.07 196.369 205.558 195.466 204.399 194.034C203.24 192.591 202.661 190.915 202.661 189.006C202.661 187.199 203.189 185.591 204.246 184.182C205.303 182.761 206.751 181.648 208.592 180.841C210.445 180.023 212.547 179.614 214.899 179.614C217.251 179.614 219.348 180.023 221.189 180.841C223.041 181.659 224.496 182.778 225.553 184.199C226.609 185.608 227.143 187.21 227.155 189.006C227.143 190.926 226.553 192.602 225.382 194.034C224.212 195.466 222.712 196.369 220.882 196.744V196.983C222.28 197.21 223.547 197.733 224.683 198.551C225.831 199.358 226.74 200.375 227.411 201.602C228.092 202.818 228.439 204.153 228.45 205.608C228.439 207.494 227.854 209.182 226.695 210.67C225.536 212.159 223.933 213.335 221.888 214.199C219.854 215.051 217.524 215.477 214.899 215.477ZM214.899 210.057C216.07 210.057 217.092 209.847 217.967 209.426C218.842 208.994 219.524 208.403 220.013 207.653C220.513 206.892 220.763 206.017 220.763 205.028C220.763 204.017 220.507 203.125 219.996 202.352C219.484 201.568 218.791 200.955 217.916 200.511C217.041 200.057 216.036 199.83 214.899 199.83C213.774 199.83 212.768 200.057 211.882 200.511C210.996 200.955 210.297 201.568 209.786 202.352C209.286 203.125 209.036 204.017 209.036 205.028C209.036 206.017 209.28 206.892 209.768 207.653C210.257 208.403 210.945 208.994 211.831 209.426C212.717 209.847 213.74 210.057 214.899 210.057ZM214.899 194.46C215.876 194.46 216.746 194.261 217.507 193.864C218.268 193.466 218.865 192.915 219.297 192.21C219.729 191.506 219.945 190.693 219.945 189.773C219.945 188.864 219.729 188.068 219.297 187.386C218.865 186.693 218.274 186.153 217.524 185.767C216.774 185.369 215.899 185.17 214.899 185.17C213.911 185.17 213.036 185.369 212.274 185.767C211.513 186.153 210.916 186.693 210.484 187.386C210.064 188.068 209.854 188.864 209.854 189.773C209.854 190.693 210.07 191.506 210.501 192.21C210.933 192.915 211.53 193.466 212.291 193.864C213.053 194.261 213.922 194.46 214.899 194.46Z" fill="black"/>
</svg>
