<svg width="256" height="256" viewBox="0 0 256 256" fill="none" xmlns="http://www.w3.org/2000/svg">
<rect x="155" y="155" width="85.3333" height="85.3333" rx="16" fill="white"/>
<path d="M182.517 215.767C179.585 215.756 177.063 215.034 174.949 213.602C172.847 212.17 171.227 210.097 170.091 207.381C168.966 204.665 168.409 201.398 168.42 197.58C168.42 193.773 168.983 190.528 170.108 187.847C171.244 185.165 172.864 183.125 174.966 181.727C177.08 180.318 179.597 179.614 182.517 179.614C185.438 179.614 187.949 180.318 190.051 181.727C192.165 183.136 193.79 185.182 194.926 187.864C196.063 190.534 196.625 193.773 196.614 197.58C196.614 201.409 196.045 204.682 194.909 207.398C193.784 210.114 192.17 212.187 190.068 213.619C187.966 215.051 185.449 215.767 182.517 215.767ZM182.517 209.648C184.517 209.648 186.114 208.642 187.307 206.631C188.5 204.619 189.091 201.602 189.08 197.58C189.08 194.932 188.807 192.727 188.261 190.966C187.727 189.205 186.966 187.881 185.977 186.994C185 186.108 183.847 185.665 182.517 185.665C180.528 185.665 178.938 186.659 177.744 188.648C176.551 190.636 175.949 193.614 175.938 197.58C175.938 200.261 176.205 202.5 176.739 204.295C177.284 206.08 178.051 207.42 179.04 208.318C180.028 209.205 181.188 209.648 182.517 209.648ZM214.507 179.614C216.303 179.614 218.03 179.915 219.689 180.517C221.359 181.119 222.848 182.08 224.155 183.398C225.473 184.716 226.513 186.466 227.274 188.648C228.047 190.818 228.439 193.483 228.45 196.642C228.45 199.608 228.115 202.256 227.445 204.585C226.786 206.903 225.837 208.875 224.598 210.5C223.359 212.125 221.865 213.364 220.115 214.216C218.365 215.057 216.411 215.477 214.251 215.477C211.922 215.477 209.865 215.028 208.081 214.131C206.297 213.222 204.859 211.989 203.768 210.432C202.689 208.864 202.036 207.102 201.808 205.148H209.087C209.371 206.42 209.967 207.409 210.876 208.114C211.786 208.807 212.911 209.153 214.251 209.153C216.524 209.153 218.251 208.165 219.433 206.188C220.615 204.199 221.212 201.477 221.223 198.023H220.984C220.462 199.045 219.757 199.926 218.871 200.665C217.984 201.392 216.967 201.955 215.82 202.352C214.683 202.75 213.473 202.949 212.189 202.949C210.132 202.949 208.297 202.466 206.683 201.5C205.07 200.534 203.797 199.205 202.865 197.511C201.933 195.818 201.467 193.886 201.467 191.716C201.456 189.375 201.996 187.29 203.087 185.46C204.178 183.631 205.7 182.199 207.655 181.165C209.621 180.119 211.905 179.602 214.507 179.614ZM214.558 185.409C213.411 185.409 212.388 185.682 211.49 186.227C210.604 186.773 209.899 187.506 209.376 188.426C208.865 189.347 208.615 190.375 208.626 191.511C208.626 192.659 208.876 193.693 209.376 194.614C209.888 195.523 210.581 196.25 211.456 196.795C212.342 197.33 213.354 197.597 214.49 197.597C215.342 197.597 216.132 197.437 216.859 197.119C217.587 196.801 218.217 196.364 218.751 195.807C219.297 195.239 219.723 194.585 220.03 193.847C220.337 193.108 220.49 192.324 220.49 191.494C220.479 190.392 220.217 189.381 219.706 188.46C219.195 187.54 218.49 186.801 217.592 186.244C216.695 185.687 215.683 185.409 214.558 185.409Z" fill="black"/>
</svg>
