<svg width="256" height="256" viewBox="0 0 256 256" fill="none" xmlns="http://www.w3.org/2000/svg">
<rect x="155" y="155" width="85.3333" height="85.3333" rx="16" fill="white"/>
<path d="M180.46 179.614C182.256 179.614 183.983 179.915 185.642 180.517C187.313 181.119 188.801 182.08 190.108 183.398C191.426 184.716 192.466 186.466 193.227 188.648C194 190.818 194.392 193.483 194.403 196.642C194.403 199.608 194.068 202.256 193.398 204.585C192.739 206.903 191.79 208.875 190.551 210.5C189.313 212.125 187.818 213.364 186.068 214.216C184.318 215.057 182.364 215.477 180.205 215.477C177.875 215.477 175.818 215.028 174.034 214.131C172.25 213.222 170.813 211.989 169.722 210.432C168.642 208.864 167.989 207.102 167.761 205.148H175.04C175.324 206.42 175.92 207.409 176.83 208.114C177.739 208.807 178.864 209.153 180.205 209.153C182.477 209.153 184.205 208.165 185.386 206.188C186.568 204.199 187.165 201.477 187.176 198.023H186.938C186.415 199.045 185.71 199.926 184.824 200.665C183.938 201.392 182.92 201.955 181.773 202.352C180.636 202.75 179.426 202.949 178.142 202.949C176.085 202.949 174.25 202.466 172.636 201.5C171.023 200.534 169.75 199.205 168.818 197.511C167.886 195.818 167.42 193.886 167.42 191.716C167.409 189.375 167.949 187.29 169.04 185.46C170.131 183.631 171.653 182.199 173.608 181.165C175.574 180.119 177.858 179.602 180.46 179.614ZM180.511 185.409C179.364 185.409 178.341 185.682 177.443 186.227C176.557 186.773 175.852 187.506 175.33 188.426C174.818 189.347 174.568 190.375 174.58 191.511C174.58 192.659 174.83 193.693 175.33 194.614C175.841 195.523 176.534 196.25 177.409 196.795C178.295 197.33 179.307 197.597 180.443 197.597C181.295 197.597 182.085 197.437 182.812 197.119C183.54 196.801 184.17 196.364 184.705 195.807C185.25 195.239 185.676 194.585 185.983 193.847C186.29 193.108 186.443 192.324 186.443 191.494C186.432 190.392 186.17 189.381 185.659 188.46C185.148 187.54 184.443 186.801 183.545 186.244C182.648 185.687 181.636 185.409 180.511 185.409ZM209.949 209.682V185.545H216.051V209.682H209.949ZM200.932 200.665V194.562H225.068V200.665H200.932Z" fill="black"/>
</svg>
