<svg width="256" height="256" viewBox="0 0 256 256" fill="none" xmlns="http://www.w3.org/2000/svg">
<rect x="155" y="155" width="85.3333" height="85.3333" rx="16" fill="white"/>
<path d="M183.034 215V180.091H197.011C199.58 180.091 201.722 180.472 203.438 181.233C205.153 181.994 206.443 183.051 207.307 184.403C208.17 185.744 208.602 187.29 208.602 189.04C208.602 190.403 208.33 191.602 207.784 192.636C207.239 193.659 206.489 194.5 205.534 195.159C204.591 195.807 203.511 196.267 202.295 196.54V196.881C203.625 196.937 204.869 197.312 206.028 198.006C207.199 198.699 208.148 199.67 208.875 200.92C209.602 202.159 209.966 203.636 209.966 205.352C209.966 207.205 209.506 208.858 208.585 210.312C207.676 211.756 206.33 212.898 204.545 213.739C202.761 214.58 200.563 215 197.949 215H183.034ZM190.415 208.966H196.432C198.489 208.966 199.989 208.574 200.932 207.79C201.875 206.994 202.347 205.937 202.347 204.619C202.347 203.653 202.114 202.801 201.648 202.062C201.182 201.324 200.517 200.744 199.653 200.324C198.801 199.903 197.784 199.693 196.602 199.693H190.415V208.966ZM190.415 194.699H195.886C196.898 194.699 197.795 194.523 198.58 194.17C199.375 193.807 200 193.295 200.455 192.636C200.92 191.977 201.153 191.188 201.153 190.267C201.153 189.006 200.705 187.989 199.807 187.216C198.92 186.443 197.659 186.057 196.023 186.057H190.415V194.699Z" fill="black"/>
</svg>
