<svg width="256" height="256" viewBox="0 0 256 256" fill="none" xmlns="http://www.w3.org/2000/svg">
<rect x="155" y="155" width="85.3333" height="85.3333" rx="16" fill="white"/>
<path d="M213.835 192.312H206.369C206.233 191.347 205.955 190.489 205.534 189.739C205.114 188.977 204.574 188.33 203.915 187.795C203.256 187.261 202.494 186.852 201.631 186.568C200.778 186.284 199.852 186.142 198.852 186.142C197.045 186.142 195.472 186.591 194.131 187.489C192.79 188.375 191.75 189.67 191.011 191.375C190.273 193.068 189.903 195.125 189.903 197.545C189.903 200.034 190.273 202.125 191.011 203.818C191.761 205.511 192.807 206.79 194.148 207.653C195.489 208.517 197.04 208.949 198.801 208.949C199.79 208.949 200.705 208.818 201.545 208.557C202.398 208.295 203.153 207.915 203.812 207.415C204.472 206.903 205.017 206.284 205.449 205.557C205.892 204.83 206.199 204 206.369 203.068L213.835 203.102C213.642 204.705 213.159 206.25 212.386 207.739C211.625 209.216 210.597 210.54 209.301 211.71C208.017 212.869 206.483 213.79 204.699 214.472C202.926 215.142 200.92 215.477 198.682 215.477C195.568 215.477 192.784 214.773 190.33 213.364C187.886 211.955 185.955 209.915 184.534 207.244C183.125 204.574 182.42 201.341 182.42 197.545C182.42 193.739 183.136 190.5 184.568 187.83C186 185.159 187.943 183.125 190.398 181.727C192.852 180.318 195.614 179.614 198.682 179.614C200.705 179.614 202.58 179.898 204.307 180.466C206.045 181.034 207.585 181.864 208.926 182.955C210.267 184.034 211.358 185.358 212.199 186.926C213.051 188.494 213.597 190.29 213.835 192.312Z" fill="black"/>
</svg>
