<svg width="256" height="256" viewBox="0 0 256 256" fill="none" xmlns="http://www.w3.org/2000/svg">
<rect x="155" y="155" width="85.3333" height="85.3333" rx="16" fill="white"/>
<path d="M195.409 215H183.034V180.091H195.511C199.023 180.091 202.045 180.79 204.58 182.188C207.114 183.574 209.063 185.568 210.426 188.17C211.801 190.773 212.489 193.886 212.489 197.511C212.489 201.148 211.801 204.273 210.426 206.886C209.063 209.5 207.102 211.506 204.545 212.903C202 214.301 198.955 215 195.409 215ZM190.415 208.676H195.102C197.284 208.676 199.119 208.29 200.608 207.517C202.108 206.733 203.233 205.523 203.983 203.886C204.744 202.239 205.125 200.114 205.125 197.511C205.125 194.932 204.744 192.824 203.983 191.188C203.233 189.551 202.114 188.347 200.625 187.574C199.136 186.801 197.301 186.415 195.119 186.415H190.415V208.676Z" fill="black"/>
</svg>
