<svg width="256" height="256" viewBox="0 0 256 256" fill="none" xmlns="http://www.w3.org/2000/svg">
<rect x="155" y="155" width="85.3333" height="85.3333" rx="16" fill="white"/>
<path d="M206.182 191.375C205.943 190.545 205.608 189.812 205.176 189.176C204.744 188.528 204.216 187.983 203.591 187.54C202.977 187.085 202.273 186.739 201.477 186.5C200.693 186.261 199.824 186.142 198.869 186.142C197.085 186.142 195.517 186.585 194.165 187.472C192.824 188.358 191.778 189.648 191.028 191.341C190.278 193.023 189.903 195.08 189.903 197.511C189.903 199.943 190.273 202.011 191.011 203.716C191.75 205.42 192.795 206.722 194.148 207.619C195.5 208.506 197.097 208.949 198.938 208.949C200.608 208.949 202.034 208.653 203.216 208.062C204.409 207.46 205.318 206.614 205.943 205.523C206.58 204.432 206.898 203.142 206.898 201.653L208.398 201.875H199.398V196.318H214.006V200.716C214.006 203.784 213.358 206.42 212.062 208.625C210.767 210.818 208.983 212.511 206.71 213.705C204.438 214.886 201.835 215.477 198.903 215.477C195.631 215.477 192.756 214.756 190.278 213.312C187.801 211.858 185.869 209.795 184.483 207.125C183.108 204.443 182.42 201.261 182.42 197.58C182.42 194.75 182.83 192.227 183.648 190.011C184.477 187.784 185.636 185.898 187.125 184.352C188.614 182.807 190.347 181.631 192.324 180.824C194.301 180.017 196.443 179.614 198.75 179.614C200.727 179.614 202.568 179.903 204.273 180.483C205.977 181.051 207.489 181.858 208.807 182.903C210.136 183.949 211.222 185.193 212.062 186.636C212.903 188.068 213.443 189.648 213.682 191.375H206.182Z" fill="black"/>
</svg>
