<svg width="256" height="256" viewBox="0 0 256 256" fill="none" xmlns="http://www.w3.org/2000/svg">
<rect x="155" y="155" width="85.3333" height="85.3333" rx="16" fill="white"/>
<path d="M197.011 180.091H204.307V204.432C204.307 206.682 203.801 208.636 202.79 210.295C201.79 211.955 200.398 213.233 198.614 214.131C196.83 215.028 194.756 215.477 192.392 215.477C190.29 215.477 188.381 215.108 186.665 214.369C184.96 213.619 183.608 212.483 182.608 210.96C181.608 209.426 181.114 207.5 181.125 205.182H188.472C188.494 206.102 188.682 206.892 189.034 207.551C189.398 208.199 189.892 208.699 190.517 209.051C191.153 209.392 191.903 209.562 192.767 209.562C193.676 209.562 194.443 209.369 195.068 208.983C195.705 208.585 196.188 208.006 196.517 207.244C196.847 206.483 197.011 205.545 197.011 204.432V180.091Z" fill="black"/>
</svg>
