<svg width="256" height="256" viewBox="0 0 256 256" fill="none" xmlns="http://www.w3.org/2000/svg">
<rect x="155" y="155" width="85.3333" height="85.3333" rx="16" fill="white"/>
<path d="M215.114 197.545C215.114 201.352 214.392 204.591 212.949 207.261C211.517 209.932 209.563 211.972 207.085 213.381C204.619 214.778 201.847 215.477 198.767 215.477C195.665 215.477 192.881 214.773 190.415 213.364C187.949 211.955 186 209.915 184.568 207.244C183.136 204.574 182.42 201.341 182.42 197.545C182.42 193.739 183.136 190.5 184.568 187.83C186 185.159 187.949 183.125 190.415 181.727C192.881 180.318 195.665 179.614 198.767 179.614C201.847 179.614 204.619 180.318 207.085 181.727C209.563 183.125 211.517 185.159 212.949 187.83C214.392 190.5 215.114 193.739 215.114 197.545ZM207.631 197.545C207.631 195.08 207.261 193 206.523 191.307C205.795 189.614 204.767 188.33 203.438 187.455C202.108 186.58 200.551 186.142 198.767 186.142C196.983 186.142 195.426 186.58 194.097 187.455C192.767 188.33 191.733 189.614 190.994 191.307C190.267 193 189.903 195.08 189.903 197.545C189.903 200.011 190.267 202.091 190.994 203.784C191.733 205.477 192.767 206.761 194.097 207.636C195.426 208.511 196.983 208.949 198.767 208.949C200.551 208.949 202.108 208.511 203.438 207.636C204.767 206.761 205.795 205.477 206.523 203.784C207.261 202.091 207.631 200.011 207.631 197.545Z" fill="black"/>
</svg>
