<svg width="256" height="256" viewBox="0 0 256 256" fill="none" xmlns="http://www.w3.org/2000/svg">
<rect x="155" y="155" width="85.3333" height="85.3333" rx="16" fill="white"/>
<path d="M183.034 215V180.091H196.807C199.455 180.091 201.71 180.597 203.574 181.608C205.438 182.608 206.858 184 207.835 185.784C208.824 187.557 209.318 189.602 209.318 191.92C209.318 194.239 208.818 196.284 207.818 198.057C206.818 199.83 205.369 201.21 203.472 202.199C201.585 203.187 199.301 203.682 196.619 203.682H187.841V197.767H195.426C196.847 197.767 198.017 197.523 198.938 197.034C199.869 196.534 200.563 195.847 201.017 194.972C201.483 194.085 201.716 193.068 201.716 191.92C201.716 190.761 201.483 189.75 201.017 188.886C200.563 188.011 199.869 187.335 198.938 186.858C198.006 186.369 196.824 186.125 195.392 186.125H190.415V215H183.034Z" fill="black"/>
</svg>
