<svg width="256" height="256" viewBox="0 0 256 256" fill="none" xmlns="http://www.w3.org/2000/svg">
<rect x="155" y="155" width="85.3333" height="85.3333" rx="16" fill="white"/>
<path d="M195.21 202.864H201.483L204.636 206.92L207.739 210.534L213.585 217.864H206.699L202.676 212.92L200.614 209.989L195.21 202.864ZM214.114 197.545C214.114 201.352 213.392 204.591 211.949 207.261C210.517 209.932 208.563 211.972 206.085 213.381C203.619 214.778 200.847 215.477 197.767 215.477C194.665 215.477 191.881 214.773 189.415 213.364C186.949 211.955 185 209.915 183.568 207.244C182.136 204.574 181.42 201.341 181.42 197.545C181.42 193.739 182.136 190.5 183.568 187.83C185 185.159 186.949 183.125 189.415 181.727C191.881 180.318 194.665 179.614 197.767 179.614C200.847 179.614 203.619 180.318 206.085 181.727C208.563 183.125 210.517 185.159 211.949 187.83C213.392 190.5 214.114 193.739 214.114 197.545ZM206.631 197.545C206.631 195.08 206.261 193 205.523 191.307C204.795 189.614 203.767 188.33 202.438 187.455C201.108 186.58 199.551 186.142 197.767 186.142C195.983 186.142 194.426 186.58 193.097 187.455C191.767 188.33 190.733 189.614 189.994 191.307C189.267 193 188.903 195.08 188.903 197.545C188.903 200.011 189.267 202.091 189.994 203.784C190.733 205.477 191.767 206.761 193.097 207.636C194.426 208.511 195.983 208.949 197.767 208.949C199.551 208.949 201.108 208.511 202.438 207.636C203.767 206.761 204.795 205.477 205.523 203.784C206.261 202.091 206.631 200.011 206.631 197.545Z" fill="black"/>
</svg>
