<svg width="256" height="256" viewBox="0 0 256 256" fill="none" xmlns="http://www.w3.org/2000/svg">
<rect x="155" y="155" width="85.3333" height="85.3333" rx="16" fill="white"/>
<path d="M183.034 215V180.091H196.807C199.443 180.091 201.693 180.562 203.557 181.506C205.432 182.437 206.858 183.761 207.835 185.477C208.824 187.182 209.318 189.187 209.318 191.494C209.318 193.812 208.818 195.807 207.818 197.477C206.818 199.136 205.369 200.409 203.472 201.295C201.585 202.182 199.301 202.625 196.619 202.625H187.398V196.693H195.426C196.835 196.693 198.006 196.5 198.938 196.114C199.869 195.727 200.563 195.148 201.017 194.375C201.483 193.602 201.716 192.642 201.716 191.494C201.716 190.335 201.483 189.358 201.017 188.562C200.563 187.767 199.864 187.165 198.92 186.756C197.989 186.335 196.813 186.125 195.392 186.125H190.415V215H183.034ZM201.886 199.114L210.562 215H202.415L193.926 199.114H201.886Z" fill="black"/>
</svg>
