<svg width="256" height="256" viewBox="0 0 256 256" fill="none" xmlns="http://www.w3.org/2000/svg">
<rect x="155" y="155" width="85.3333" height="85.3333" rx="16" fill="white"/>
<path d="M201.972 190.131C201.835 188.756 201.25 187.687 200.216 186.926C199.182 186.165 197.778 185.784 196.006 185.784C194.801 185.784 193.784 185.955 192.955 186.295C192.125 186.625 191.489 187.085 191.045 187.676C190.614 188.267 190.398 188.938 190.398 189.688C190.375 190.312 190.506 190.858 190.79 191.324C191.085 191.79 191.489 192.193 192 192.534C192.511 192.864 193.102 193.153 193.773 193.403C194.443 193.642 195.159 193.847 195.92 194.017L199.057 194.767C200.58 195.108 201.977 195.562 203.25 196.131C204.523 196.699 205.625 197.398 206.557 198.227C207.489 199.057 208.21 200.034 208.722 201.159C209.244 202.284 209.511 203.574 209.523 205.028C209.511 207.165 208.966 209.017 207.886 210.585C206.818 212.142 205.273 213.352 203.25 214.216C201.239 215.068 198.813 215.494 195.972 215.494C193.153 215.494 190.699 215.062 188.608 214.199C186.528 213.335 184.903 212.057 183.733 210.364C182.574 208.659 181.966 206.551 181.909 204.04H189.051C189.131 205.21 189.466 206.187 190.057 206.972C190.659 207.744 191.46 208.33 192.46 208.727C193.472 209.114 194.614 209.307 195.886 209.307C197.136 209.307 198.222 209.125 199.142 208.761C200.074 208.398 200.795 207.892 201.307 207.244C201.818 206.597 202.074 205.852 202.074 205.011C202.074 204.227 201.841 203.568 201.375 203.034C200.92 202.5 200.25 202.045 199.364 201.67C198.489 201.295 197.415 200.955 196.142 200.648L192.341 199.693C189.398 198.977 187.074 197.858 185.369 196.335C183.665 194.812 182.818 192.761 182.83 190.182C182.818 188.068 183.381 186.222 184.517 184.642C185.665 183.062 187.239 181.83 189.239 180.943C191.239 180.057 193.511 179.614 196.057 179.614C198.648 179.614 200.909 180.057 202.841 180.943C204.784 181.83 206.295 183.062 207.375 184.642C208.455 186.222 209.011 188.051 209.045 190.131H201.972Z" fill="black"/>
</svg>
