<svg width="256" height="256" viewBox="0 0 256 256" fill="none" xmlns="http://www.w3.org/2000/svg">
<rect x="155" y="155" width="85.3333" height="85.3333" rx="16" fill="white"/>
<path d="M203.597 180.091H210.977V202.761C210.977 205.307 210.369 207.534 209.153 209.443C207.949 211.352 206.261 212.841 204.091 213.909C201.92 214.966 199.392 215.494 196.506 215.494C193.608 215.494 191.074 214.966 188.903 213.909C186.733 212.841 185.045 211.352 183.841 209.443C182.636 207.534 182.034 205.307 182.034 202.761V180.091H189.415V202.131C189.415 203.46 189.705 204.642 190.284 205.676C190.875 206.71 191.705 207.523 192.773 208.114C193.841 208.705 195.085 209 196.506 209C197.938 209 199.182 208.705 200.239 208.114C201.307 207.523 202.131 206.71 202.71 205.676C203.301 204.642 203.597 203.46 203.597 202.131V180.091Z" fill="black"/>
</svg>
