<svg width="256" height="256" viewBox="0 0 256 256" fill="none" xmlns="http://www.w3.org/2000/svg">
<path d="M62.3137 209.664C56.0653 215.913 56.0653 226.043 62.3137 232.292L70.5403 240.518C76.7887 246.767 86.9193 246.767 93.1677 240.518L174.416 159.27L143.562 128.416L62.3137 209.664Z" fill="white"/>
<path d="M93.1677 16.3138C86.9193 10.0654 76.7887 10.0654 70.5403 16.3138L62.3137 24.5404C56.0653 30.7888 56.0653 40.9194 62.3137 47.1678L143.562 128.416L174.416 97.5621L93.1677 16.3138Z" fill="white"/>
<path d="M174.416 97.5621L143.562 128.416L174.416 159.27L193.956 139.73C200.205 133.481 200.205 123.351 193.956 117.102L174.416 97.5621Z" fill="white"/>
</svg>
