<svg width="256" height="256" viewBox="0 0 256 256" fill="none" xmlns="http://www.w3.org/2000/svg">
<path d="M193.956 47.1677C200.205 40.9193 200.205 30.7887 193.956 24.5403L185.73 16.3137C179.481 10.0653 169.351 10.0653 163.102 16.3137L81.8541 97.5619L112.708 128.416L193.956 47.1677Z" fill="white"/>
<path d="M163.102 240.518C169.351 246.767 179.481 246.767 185.73 240.518L193.956 232.292C200.205 226.043 200.205 215.913 193.956 209.664L112.708 128.416L81.854 159.27L163.102 240.518Z" fill="white"/>
<path d="M81.854 159.27L112.708 128.416L81.8541 97.5619L62.3137 117.102C56.0653 123.351 56.0653 133.481 62.3137 139.73L81.854 159.27Z" fill="white"/>
</svg>
