<svg width="256" height="256" viewBox="0 0 256 256" fill="none" xmlns="http://www.w3.org/2000/svg">
<path fill-rule="evenodd" clip-rule="evenodd" d="M100.387 48H155.559C159.238 48 164.448 50.4521 166.594 53.5172L181.92 75.8927C183.452 78.0383 185.904 79.2644 188.356 79.2644H221.153C228.816 79.2644 234.946 85.3946 234.946 93.0575V194.207C234.946 201.87 228.816 208 221.153 208H34.7931C27.1303 208 21 201.87 21 194.207V93.0575C21 85.3946 27.1303 79.2644 34.7931 79.2644H67.59C70.0421 79.2644 72.4943 78.0383 74.0268 75.8927L89.3525 53.5172C91.4981 50.4521 96.4023 48 100.387 48ZM79.5441 142.406C79.5441 169.379 101.307 191.142 127.973 191.142C154.64 191.142 176.402 169.379 176.402 142.406C176.402 115.433 154.64 93.6705 127.973 93.6705C101.307 93.6705 79.5441 115.433 79.5441 142.406ZM89.9655 142.406C89.9655 121.257 106.824 104.092 127.973 104.092C149.123 104.092 165.981 121.257 165.981 142.406C165.981 163.556 149.123 180.72 127.973 180.72C106.824 180.72 89.9655 163.556 89.9655 142.406ZM186.827 104.092C182.842 104.092 179.777 101.027 179.777 97.0426C179.777 93.0579 182.842 89.9928 186.827 89.9928C190.811 89.9928 193.876 93.0579 193.876 97.0426C193.876 101.027 190.505 104.092 186.827 104.092Z" fill="white"/>
</svg>
