<svg width="256" height="256" viewBox="0 0 256 256" fill="none" xmlns="http://www.w3.org/2000/svg">
<path fill-rule="evenodd" clip-rule="evenodd" d="M37.4903 218.51C87.4774 268.497 168.523 268.497 218.51 218.51C268.497 168.523 268.497 87.4774 218.51 37.4903C168.523 -12.4968 87.4774 -12.4968 37.4903 37.4903C-12.4968 87.4774 -12.4968 168.523 37.4903 218.51ZM158.17 82.7452C162.335 78.5796 169.089 78.5796 173.255 82.7452C177.42 86.9108 177.42 93.6645 173.255 97.8301L148.742 122.343C145.618 125.467 145.618 130.533 148.742 133.657L173.255 158.17C177.42 162.335 177.42 169.089 173.255 173.255C169.089 177.42 162.335 177.42 158.17 173.255L133.657 148.742C130.533 145.618 125.467 145.618 122.343 148.742L97.8301 173.255C93.6645 177.42 86.9108 177.42 82.7452 173.255C78.5796 169.089 78.5796 162.335 82.7452 158.17L107.258 133.657C110.382 130.533 110.382 125.467 107.258 122.343L82.7452 97.8301C78.5796 93.6645 78.5796 86.9107 82.7452 82.7452C86.9108 78.5796 93.6645 78.5796 97.8301 82.7452L122.343 107.258C125.467 110.382 130.533 110.382 133.657 107.258L158.17 82.7452Z" fill="#B5B5B5"/>
</svg>
