<svg width="65" height="65" viewBox="0 0 65 65" fill="none" xmlns="http://www.w3.org/2000/svg">
<path d="M32.4861 59.5923C33.4322 59.5923 34.3783 59.5359 35.2687 59.3947L36.6322 62.0193C36.8826 62.5273 37.1609 62.6684 37.8566 62.5838C38.4966 62.5273 38.6635 62.3015 38.747 61.6242L39.1644 58.7174C40.9453 58.2941 42.7262 57.645 44.3679 56.7984L46.5105 58.7174C46.8723 59.1408 47.2062 59.169 47.8462 58.8868C48.3192 58.6328 48.4305 58.3506 48.3192 57.645L47.7627 54.8229C49.2932 53.7787 50.7123 52.5934 52.0201 51.1823L54.6358 52.283C55.1088 52.6216 55.4428 52.537 55.9715 51.9443C56.4723 51.4646 56.4723 51.1541 56.0271 50.6179L54.5245 48.1344C55.6097 46.6105 56.5836 44.9454 57.3071 43.2804L60.2011 43.4215C60.8411 43.4779 61.0915 43.2804 61.2585 42.6877C61.4811 42.0669 61.3698 41.7847 60.8689 41.3896L58.6428 39.5552C59.1437 37.8054 59.4219 35.9146 59.5611 33.9956L62.288 33.1207C62.9002 32.8949 63.0672 32.641 63.0672 32.0201C63.0672 31.4274 62.9002 31.1734 62.288 30.9195L59.5611 30.0446C59.4219 28.1255 59.1158 26.2629 58.6428 24.485L60.8689 22.6506C61.3419 22.3402 61.3976 22.058 61.2585 21.4089C61.0915 20.788 60.8411 20.6187 60.2011 20.6469L57.3071 20.7598C56.5558 19.0665 55.6097 17.4297 54.5245 15.9057L56.0271 13.4505C56.4167 12.9425 56.4167 12.6038 55.9715 12.1523C55.4428 11.5314 55.1088 11.475 54.6358 11.7854L52.0201 12.8578C50.7123 11.5032 49.2932 10.2897 47.7627 9.24549L48.3192 6.45158C48.4305 5.74604 48.3192 5.46383 47.8462 5.20984C47.2062 4.87118 46.9279 4.8994 46.5105 5.35095L44.3679 7.24177C42.7262 6.45158 40.9453 5.80249 39.1644 5.37917L38.747 2.44415C38.6635 1.76684 38.4687 1.56929 37.8287 1.48463C37.1609 1.42818 36.8826 1.56929 36.6322 2.02083L35.2687 4.67363C34.3783 4.58897 33.4322 4.50431 32.4861 4.50431C31.5956 4.50431 30.6774 4.58897 29.7591 4.67363L28.3956 2.02083C28.173 1.56929 27.8948 1.42818 27.1713 1.48463C26.5313 1.56929 26.3643 1.76684 26.2808 2.44415L25.8634 5.32272C24.0826 5.80249 22.3017 6.42336 20.6599 7.24177L18.5451 5.37917C18.0721 4.95585 17.7938 4.92763 17.2095 5.20984C16.7086 5.46383 16.5973 5.74604 16.7086 6.45158L17.2651 9.24549C15.7347 10.2897 14.3155 11.5032 13.0355 12.8578L10.4198 11.7854C9.91898 11.475 9.61289 11.5314 9.05636 12.1523C8.61114 12.6038 8.61114 12.9425 8.97288 13.394L10.5312 15.9057C9.44593 17.4297 8.49984 19.0665 7.74853 20.7598L4.82677 20.6469C4.18676 20.6187 3.96415 20.788 3.76937 21.4089C3.49111 22.058 3.60241 22.3402 4.15894 22.6506L6.38504 24.485C5.93982 26.2629 5.6059 28.1255 5.46677 30.0164L2.7398 30.9195C2.09979 31.1452 1.93284 31.371 1.93284 32.0201C1.93284 32.6692 2.09979 32.9232 2.7398 33.1207L5.46677 34.0238C5.6059 35.9146 5.88417 37.8054 6.38504 39.5552L4.15894 41.3896C3.65806 41.7282 3.57459 42.0104 3.76937 42.6877C3.96415 43.2804 4.18676 43.4779 4.82677 43.4215L7.74853 43.2804C8.44418 44.9454 9.44593 46.6105 10.4755 48.1344L9.00071 50.6179C8.58332 51.1541 8.58331 51.4646 9.05636 51.9443C9.61289 52.537 9.91898 52.6216 10.4198 52.283L13.0355 51.1823C14.3155 52.5934 15.7347 53.7787 17.2651 54.8229L16.7086 57.645C16.5973 58.3506 16.7086 58.6328 17.2095 58.8868C17.8495 59.169 18.0999 59.1408 18.5451 58.7174L20.6321 56.7984C22.3017 57.645 24.0826 58.2941 25.8634 58.7457L26.2808 61.6242C26.3643 62.3015 26.5313 62.5273 27.1991 62.5838C27.8947 62.6684 28.173 62.5273 28.3956 62.0193L29.7591 59.3947C30.6217 59.5359 31.5956 59.5923 32.4861 59.5923ZM38.5244 31.2863C38.107 28.3795 35.6026 26.0936 32.5696 26.0936C31.7626 26.0936 31.0391 26.2629 30.3435 26.5734L20.2425 8.99149C23.8599 6.98778 28.0339 5.85893 32.4861 5.85893C46.5384 5.85893 57.6132 16.9781 57.975 31.2863H38.5244ZM7.05287 32.0201C7.05287 22.5942 11.6999 14.4382 18.7956 9.86636L28.8687 27.3918C27.4495 28.4924 26.5313 30.2704 26.5313 32.2176C26.5313 34.306 27.5608 36.1404 29.1191 37.241L18.9903 54.3431C11.7555 49.7431 7.05287 41.5307 7.05287 32.0201ZM28.0895 32.2176C28.0895 29.7342 30.1209 27.7304 32.5696 27.7304C34.9905 27.7304 37.0218 29.7342 37.0218 32.2176C37.0218 34.7011 34.9905 36.7613 32.5696 36.7613C30.1209 36.7613 28.0895 34.7011 28.0895 32.2176ZM32.4861 58.2377C28.1174 58.2377 24.0269 57.137 20.4373 55.1898L30.5939 38.0312C31.2061 38.2288 31.8461 38.3417 32.5696 38.3417C35.7418 38.3417 38.2461 35.9711 38.5522 32.8949H57.975C57.5297 47.1467 46.4827 58.2377 32.4861 58.2377Z" fill="white"/>
<path fill-rule="evenodd" clip-rule="evenodd" d="M29.6748 1.3749C29.4811 0.986008 29.1567 0.524689 28.5601 0.255768C28.0328 0.0180726 27.4823 0.0229693 27.0598 0.0559282L27.0215 0.0589192L26.9834 0.0639626C26.5964 0.115149 25.9517 0.23695 25.4596 0.775357C25.0043 1.27366 24.9057 1.89258 24.8607 2.25291L24.5788 4.19699C23.339 4.5651 22.097 5.00727 20.9 5.54363L19.4961 4.3072C19.1957 4.0389 18.7359 3.68618 18.0931 3.6075C17.4637 3.53047 16.9327 3.75209 16.5863 3.91939L16.5738 3.92543L16.5614 3.93172C16.1678 4.13131 15.6618 4.47514 15.3999 5.12708C15.1701 5.69919 15.2307 6.2778 15.2933 6.67464L15.2977 6.70306L15.6784 8.61384C14.6229 9.39019 13.6228 10.244 12.6869 11.1661L11.06 10.4991C10.6823 10.284 10.1046 10.0536 9.40682 10.2305C8.76529 10.3932 8.30937 10.8414 8.01073 11.172C7.69544 11.4978 7.31784 12.0032 7.28117 12.6974C7.24607 13.3619 7.54038 13.8775 7.79522 14.2135L8.81963 15.8647C8.08928 16.9613 7.4273 18.1091 6.85173 19.291L4.88989 19.2152L4.88576 19.2151C4.48511 19.1977 3.85438 19.2137 3.28812 19.6257C2.76739 20.0045 2.54415 20.5448 2.42407 20.9116C2.2612 21.3069 2.06809 21.929 2.28991 22.6039C2.50333 23.2533 2.99129 23.6223 3.33853 23.831L4.78409 25.0222C4.49633 26.2949 4.2667 27.6109 4.12422 28.9514L2.2762 29.5634L2.26313 29.568C1.89089 29.6993 1.33264 29.9299 0.941375 30.4628C0.539283 31.0104 0.5 31.619 0.5 32.0199C0.5 32.4185 0.538873 33.0278 0.932944 33.5759C1.32759 34.1248 1.89248 34.3571 2.30215 34.4849L4.12022 35.087C4.25133 36.4128 4.4565 37.7444 4.76641 39.0321L3.29494 40.2447C2.95406 40.484 2.51987 40.8683 2.33062 41.5006C2.1464 42.116 2.28161 42.6985 2.39235 43.0835L2.39977 43.1094L2.40817 43.1349C2.52189 43.4809 2.74115 44.0585 3.28812 44.4564C3.85485 44.8688 4.48283 44.8867 4.92156 44.8512L6.84144 44.7585C7.40642 45.9417 8.08583 47.0965 8.78458 48.1755L7.81122 49.8146C7.56617 50.1418 7.23946 50.6699 7.26261 51.3508C7.28816 52.102 7.72083 52.628 8.02321 52.937C8.31092 53.2424 8.76926 53.6899 9.40682 53.8516C10.11 54.0299 10.6919 53.797 11.0878 53.5562L12.6783 52.887C13.623 53.8395 14.6276 54.6872 15.6796 55.4568L15.2975 57.3945L15.2933 57.4215C15.2307 57.8184 15.1701 58.397 15.3999 58.9691C15.6618 59.621 16.1678 59.9649 16.5614 60.1645L16.5959 60.182L16.6314 60.1976C16.9703 60.347 17.5091 60.5653 18.1274 60.4883C18.7903 60.4057 19.2437 60.0289 19.5231 59.7645L20.8862 58.511C22.0887 59.0617 23.3315 59.518 24.5803 59.881L24.8607 61.815C24.9049 62.1693 25.0024 62.8 25.464 63.3042C25.966 63.8525 26.6223 63.9703 27.0517 64.009C27.4638 64.0574 28.0379 64.0817 28.5931 63.8161C29.1967 63.5273 29.5082 63.0336 29.6863 62.6428L30.5709 60.94C31.2192 61.0001 31.8764 61.0249 32.4861 61.0249C33.1384 61.0249 33.8012 60.9996 34.4563 60.9387L35.3545 62.6677C35.5433 63.0467 35.8631 63.5363 36.4684 63.8205C37.022 64.0805 37.59 64.0578 38.0067 64.0086C38.435 63.9686 39.0851 63.8449 39.5797 63.2904C40.0261 62.7901 40.123 62.1695 40.1672 61.814L40.4471 59.8648C41.6988 59.5138 42.9404 59.0593 44.1302 58.5088L45.4938 59.7301C45.8076 60.0727 46.2622 60.4132 46.9056 60.4894C47.5116 60.5611 48.0512 60.3621 48.4243 60.1976L48.4751 60.1752L48.524 60.1489C48.9111 59.9411 49.3934 59.5904 49.6397 58.948C49.8546 58.3875 49.7978 57.8221 49.7346 57.4215L49.7303 57.3945L49.3482 55.4569C50.4041 54.6849 51.4119 53.8359 52.3691 52.8835L53.9555 53.551C54.3606 53.8049 54.9402 54.0277 55.6349 53.8516C56.2621 53.6925 56.7114 53.2617 57.0042 52.9385C57.3134 52.6352 57.7603 52.1096 57.7861 51.3508C57.8099 50.6506 57.4586 50.1149 57.2019 49.7914L56.2299 48.1851C56.9613 47.0902 57.6344 45.934 58.2041 44.7584L60.1059 44.8512C60.5446 44.8867 61.1719 44.8683 61.7383 44.465C62.2858 44.075 62.5097 43.5128 62.6238 43.1241C62.7661 42.7136 62.8979 42.1427 62.7008 41.5209C62.5056 40.9047 62.0704 40.5134 61.769 40.2744L60.2614 39.0321C60.5715 37.743 60.7767 36.408 60.9078 35.068L62.755 34.4754L62.7838 34.4648C63.1788 34.3191 63.7104 34.0706 64.0819 33.5388C64.4551 33.0044 64.5 32.4223 64.5 32.0199C64.5 31.6147 64.4496 31.0486 64.0819 30.5221C63.7265 30.0133 63.2221 29.7555 62.8371 29.5958L62.7823 29.573L60.9057 28.971C60.7687 27.6234 60.5509 26.3018 60.2516 25.0157L61.7276 23.7994C62.0874 23.5504 62.4902 23.169 62.6686 22.5583C62.8329 21.9959 62.7333 21.453 62.6595 21.1084L62.6517 21.0722L62.6421 21.0366C62.533 20.6309 62.316 20.0285 61.7383 19.6171C61.172 19.2138 60.5414 19.1977 60.1415 19.2151L60.1379 19.2152L58.2038 19.2907C57.6273 18.107 56.9642 16.9576 56.2325 15.8594L57.2137 14.2562C57.4639 13.917 57.7669 13.3961 57.7443 12.7313C57.7203 12.0255 57.3451 11.5142 57.0302 11.1856C56.7285 10.8368 56.2762 10.3931 55.6349 10.2305C54.9456 10.0557 54.3715 10.276 53.9834 10.5041L52.3605 11.1695C51.4124 10.2478 50.4088 9.39255 49.3495 8.61377L49.7301 6.70306L49.7346 6.67464C49.7978 6.27404 49.8546 5.70873 49.6397 5.14818C49.3934 4.50575 48.9111 4.15508 48.524 3.94724L48.5163 3.94317C48.1711 3.76047 47.6072 3.48941 46.9454 3.55885C46.259 3.63086 45.7965 4.02415 45.5129 4.32014L44.1194 5.54988C42.9386 5.03017 41.7012 4.58179 40.4485 4.23149L40.1673 2.25469C40.1182 1.86272 40.0053 1.24353 39.5292 0.748609C39.0352 0.235069 38.4035 0.11514 38.0166 0.0639626L37.9831 0.0595265L37.9494 0.0566777C37.5346 0.0216187 36.9988 0.0198261 36.4759 0.259949C35.9062 0.521631 35.582 0.959991 35.3792 1.32567L35.3682 1.34548L34.4354 3.1603C33.8112 3.10999 33.1516 3.07127 32.4861 3.07127C31.8533 3.07127 31.2132 3.11054 30.5928 3.16106L29.6748 1.3749ZM28.1946 4.76385L27.5688 3.54634L27.3713 4.90827C27.6443 4.85598 27.9187 4.80782 28.1946 4.76385ZM19.2236 7.88586L18.2918 7.06521L18.5374 8.29783L18.8712 8.11292L19.2236 7.88586ZM12.0137 13.9872L10.6907 13.4448L11.4568 14.6796C11.6388 14.4456 11.8244 14.2148 12.0137 13.9872ZM7.32773 22.1772L5.7645 22.1168L6.99999 23.1349C7.10374 22.8129 7.21303 22.4936 7.32773 22.1772ZM5.62501 31.4731L3.97399 32.0199L5.62498 32.5666C5.62169 32.3848 5.62003 32.2026 5.62003 32.0199C5.62003 31.8372 5.6217 31.6549 5.62501 31.4731ZM6.99549 40.9085L5.74056 41.9427L7.32227 41.8663C7.20789 41.5498 7.09892 41.2306 6.99549 40.9085ZM11.4237 49.3436L10.662 50.6264L12.0002 50.0633C11.8041 49.8269 11.6119 49.587 11.4237 49.3436ZM18.5352 55.7878L18.2963 56.9995L19.1964 56.1719L18.9244 55.9989L18.5352 55.7878ZM27.3747 59.183L27.5666 60.5068L28.1801 59.326C27.9102 59.2824 27.6417 59.2347 27.3747 59.183ZM36.8463 59.3232C37.1158 59.2797 37.3838 59.2322 37.6503 59.1808L37.4602 60.5048L36.8463 59.3232ZM45.7973 56.1549C46.0285 56.022 46.2576 55.8858 46.4844 55.7461L46.7297 56.99L45.7973 56.1549ZM53.0315 50.0532C53.2212 49.8245 53.4073 49.5924 53.5897 49.3572L54.3454 50.6061L53.0315 50.0532ZM57.7107 41.8653L59.2867 41.9422L58.037 40.9124C57.9336 41.2328 57.8248 41.5505 57.7107 41.8653ZM59.4397 32.5295L61.0284 32.0199L59.4516 31.514L59.4308 32.1795L59.4397 32.5295ZM58.0367 23.1276L59.2629 22.1172L57.7112 22.1777C57.8251 22.4915 57.9336 22.8082 58.0367 23.1276ZM53.5856 14.6948L54.3458 13.4527L53.0224 13.9953C53.2138 14.2251 53.4016 14.4583 53.5856 14.6948ZM46.4835 8.33259C46.2492 8.18892 46.0124 8.0488 45.7733 7.91232L46.7366 7.06223L46.4835 8.33259ZM37.6509 4.91321C37.379 4.86101 37.1056 4.81288 36.8307 4.76888L37.4571 3.55015L37.6509 4.91321ZM18.329 11.9297C12.3507 16.3558 8.48571 23.6406 8.48571 32.0199C8.48571 40.495 12.4149 47.8468 18.5348 52.3003L27.2735 37.5454C25.9322 36.1828 25.0984 34.3005 25.0984 32.2174C25.0984 30.2754 25.8394 28.4657 27.0604 27.1209L18.329 11.9297ZM22.4516 54.5995C25.5036 56.0167 28.8932 56.8046 32.4861 56.8046C45.1866 56.8046 55.3487 47.1195 56.456 34.3276H39.737C38.8645 37.4733 36.0404 39.7743 32.5696 39.7743C32.1206 39.7743 31.6957 39.7382 31.2882 39.671L22.4516 54.5995ZM22.2326 9.57887L31.0012 24.8417C31.4999 24.7234 32.0203 24.6606 32.5696 24.6606C35.8974 24.6606 38.6931 26.8685 39.6579 29.8533H56.4652C55.4334 17.0095 45.2461 7.29154 32.4861 7.29154C28.8023 7.29154 25.3271 8.10884 22.2326 9.57887ZM27.1025 2.63874L27.1016 2.63727ZM32.5696 29.1631C30.9079 29.1631 29.5224 30.5295 29.5224 32.2174C29.5224 33.9287 30.9312 35.3282 32.5696 35.3282C34.1744 35.3282 35.5889 33.9345 35.5889 32.2174C35.5889 30.5237 34.1976 29.1631 32.5696 29.1631Z" fill="white"/>
</svg>
