<svg width="28" height="18" viewBox="0 0 28 18" fill="none" xmlns="http://www.w3.org/2000/svg">
<path fill-rule="evenodd" clip-rule="evenodd" d="M26.5 1H1V16.5H26.5V1ZM0 0V17.5H27.5V0H0Z" fill="white"/>
<path d="M6.7642 4.40909L6.62358 10.571H5.25142L5.11506 4.40909H6.7642ZM5.9375 13.2301C5.67898 13.2301 5.45739 13.1392 5.27273 12.9574C5.09091 12.7756 5 12.554 5 12.2926C5 12.0369 5.09091 11.8182 5.27273 11.6364C5.45739 11.4545 5.67898 11.3636 5.9375 11.3636C6.19034 11.3636 6.40909 11.4545 6.59375 11.6364C6.78125 11.8182 6.875 12.0369 6.875 12.2926C6.875 12.4659 6.83097 12.6236 6.7429 12.7656C6.65767 12.9077 6.54403 13.0213 6.40199 13.1065C6.26278 13.1889 6.10795 13.2301 5.9375 13.2301Z" fill="white"/>
<path d="M8.57955 13.1364V6.59091H10.054V7.70313H10.1307C10.267 7.32813 10.4929 7.03551 10.8082 6.82528C11.1236 6.61222 11.5 6.50568 11.9375 6.50568C12.3807 6.50568 12.7543 6.61364 13.0582 6.82955C13.3651 7.04261 13.581 7.33381 13.706 7.70313H13.7741C13.919 7.33949 14.1634 7.04972 14.5071 6.83381C14.8537 6.61506 15.2642 6.50568 15.7386 6.50568C16.3409 6.50568 16.8324 6.69602 17.2131 7.0767C17.5938 7.45739 17.7841 8.01278 17.7841 8.7429V13.1364H16.2372V8.98153C16.2372 8.57528 16.1293 8.27841 15.9134 8.09091C15.6974 7.90057 15.4332 7.8054 15.1207 7.8054C14.7486 7.8054 14.4574 7.92188 14.2472 8.15483C14.0398 8.38494 13.9361 8.68466 13.9361 9.05398V13.1364H12.4233V8.91761C12.4233 8.57955 12.321 8.30966 12.1165 8.10795C11.9148 7.90625 11.6506 7.8054 11.3239 7.8054C11.1023 7.8054 10.9006 7.86222 10.7188 7.97585C10.5369 8.08665 10.392 8.24432 10.2841 8.44886C10.1761 8.65057 10.1222 8.88636 10.1222 9.15625V13.1364H8.57955Z" fill="white"/>
<path d="M22.9116 4L20.0991 14.4489H18.7482L21.5607 4H22.9116Z" fill="white"/>
</svg>
