<svg width="18" height="18" viewBox="0 0 18 18" fill="none" xmlns="http://www.w3.org/2000/svg">
<path d="M9.00003 11.6666C8.16654 11.6666 7.45807 11.3785 6.87462 10.8024C6.29118 10.2263 5.99946 9.5267 5.99946 8.70366L5.9994 3.96295C5.9994 3.13991 6.29112 2.44032 6.87457 1.86419C7.45801 1.28806 8.16648 1 8.99998 1C9.83347 1 10.6584 1.28806 11.2418 1.86419C11.8252 2.44032 12.0005 3.01947 12.0006 3.61216L12.0006 8.11116C12.0006 8.9342 11.7089 10.2263 11.1254 10.8024C10.542 11.3785 9.83352 11.6666 9.00003 11.6666ZM4.63295 17C4.29115 17 4.01408 16.7264 4.01408 16.3889C4.01408 16.0514 4.29115 15.7778 4.63294 15.7778H7.44014C7.80449 15.7778 8.09986 15.4861 8.09986 15.1263C8.09986 14.7997 7.85381 14.5269 7.53028 14.4586C6.1363 14.1644 4.96423 13.4802 4.01408 12.4062C3.13582 11.4134 3.01482 10.2781 3.00006 9.0001C2.99439 8.50921 3.40184 8.11116 3.89899 8.11116C4.39614 8.11116 4.79126 8.50925 4.79296 9.00016C4.7962 9.93543 4.88714 10.7571 5.60513 11.4652C6.54231 12.3897 7.67586 12.8519 9.00578 12.8519C10.3355 12.8519 11.4672 12.3897 12.4007 11.4652C13.1157 10.7571 13.2048 9.93543 13.2074 9.00016C13.2087 8.50924 13.6039 8.11116 14.101 8.11116C14.5982 8.11116 15.0056 8.50921 14.9999 9.0001C14.9852 10.2781 14.8642 11.4134 13.986 12.4062C13.0358 13.4802 11.8638 14.1644 10.4698 14.4586C10.1463 14.5269 9.9002 14.7997 9.9002 15.1263C9.9002 15.4861 10.1956 15.7778 10.5599 15.7778H13.3671C13.7089 15.7778 13.986 16.0514 13.986 16.3889C13.986 16.7264 13.7089 17 13.3671 17H4.63295ZM9.00003 9.88884C9.3401 9.88884 9.62515 9.77526 9.85519 9.5481C10.0852 9.32094 10.2003 9.03946 10.2003 8.70366L10.2002 3.96295C10.2002 3.62715 10.0852 3.34567 9.85514 3.11851C9.6251 2.89135 9.34004 2.77777 8.99998 2.77777C8.65991 2.77777 8.37486 2.89135 8.14481 3.11851C7.91477 3.34567 7.79975 3.62715 7.79975 3.96295L7.7998 8.70366C7.7998 9.03946 7.91482 9.32094 8.14487 9.5481C8.37491 9.77526 8.65996 9.88884 9.00003 9.88884Z" fill="white"/>
</svg>
