<svg width="18" height="18" viewBox="0 0 18 18" fill="none" xmlns="http://www.w3.org/2000/svg">
<path fill-rule="evenodd" clip-rule="evenodd" d="M6.87462 10.8024C7.45807 11.3785 8.16654 11.6666 9.00003 11.6666C9.17463 11.6666 9.34374 11.654 9.50736 11.6287L5.99945 8.12077L5.99946 8.70366C5.99946 9.5267 6.29118 10.2263 6.87462 10.8024ZM6.00042 3.8791C6.01966 3.09229 6.31104 2.42066 6.87457 1.86419C7.45801 1.28806 8.16648 1 8.99998 1C9.83347 1 10.6584 1.28806 11.2418 1.86419C11.8252 2.44032 12.0005 3.01947 12.0006 3.61215L12.0006 8.11116C12.0006 8.54628 11.9191 9.11248 11.756 9.63469L10.2003 8.07893L10.2002 3.96295C10.2002 3.62715 10.0852 3.34567 9.85514 3.11851C9.6251 2.89135 9.34004 2.77777 8.99998 2.77777C8.65991 2.77777 8.37486 2.89135 8.14481 3.11851C7.91477 3.34567 7.79975 3.62715 7.79975 3.96295L7.79977 5.67845L6.00042 3.8791ZM10.5081 12.6295C10.0391 12.7777 9.53835 12.8519 9.00578 12.8519C7.67586 12.8519 6.54231 12.3897 5.60513 11.4652C4.88714 10.7571 4.7962 9.93543 4.79296 9.00016C4.79126 8.50925 4.39614 8.11116 3.89899 8.11116C3.40184 8.11116 2.99439 8.50921 3.00006 9.0001C3.01482 10.2781 3.13582 11.4134 4.01408 12.4062C4.96423 13.4802 6.1363 14.1644 7.53028 14.4586C7.85381 14.5269 8.09986 14.7997 8.09986 15.1263C8.09986 15.4861 7.80449 15.7778 7.44014 15.7778H4.63294C4.29115 15.7778 4.01408 16.0514 4.01408 16.3889C4.01408 16.7264 4.29115 17 4.63295 17H13.3671C13.7089 17 13.986 16.7264 13.986 16.3889C13.986 16.0514 13.7089 15.7778 13.3671 15.7778H10.5599C10.1956 15.7778 9.9002 15.4861 9.9002 15.1263C9.9002 14.7997 10.1463 14.5269 10.4698 14.4586C10.9662 14.3539 11.4345 14.1996 11.8746 13.9959L10.5081 12.6295ZM14.2266 12.1052L12.8993 10.778C13.1624 10.2397 13.2056 9.64712 13.2074 9.00016C13.2087 8.50924 13.6039 8.11116 14.101 8.11116C14.5982 8.11116 15.0056 8.50921 14.9999 9.0001C14.9867 10.1508 14.8873 11.1858 14.2266 12.1052Z" fill="white"/>
<path d="M3 3L15.7279 15.7279" stroke="white" stroke-width="2" stroke-linecap="round"/>
</svg>
