<svg width="256" height="256" viewBox="0 0 256 256" fill="none" xmlns="http://www.w3.org/2000/svg">
<path fill-rule="evenodd" clip-rule="evenodd" d="M128 256C198.692 256 256 198.692 256 128C256 57.3076 198.692 0 128 0C57.3076 0 0 57.3076 0 128C0 198.692 57.3076 256 128 256ZM117.333 74.6667C117.333 68.7756 122.109 64 128 64C133.891 64 138.667 68.7756 138.667 74.6667V109.333C138.667 113.752 142.248 117.333 146.667 117.333H181.333C187.224 117.333 192 122.109 192 128C192 133.891 187.224 138.667 181.333 138.667H146.667C142.248 138.667 138.667 142.248 138.667 146.667V181.333C138.667 187.224 133.891 192 128 192C122.109 192 117.333 187.224 117.333 181.333V146.667C117.333 142.248 113.752 138.667 109.333 138.667H74.6667C68.7756 138.667 64 133.891 64 128C64 122.109 68.7756 117.333 74.6667 117.333H109.333C113.752 117.333 117.333 113.752 117.333 109.333V74.6667Z" fill="#1EB14D"/>
</svg>
