<svg width="80" height="80" viewBox="0 0 80 80" fill="none" xmlns="http://www.w3.org/2000/svg">
<path d="M25 22.2368L28 15.2368L29 15.7368L25.5 23.7368L26.5 24.2368L30 15.7368L30.5 16.7368L28 23.7368H26L29 16.7368L27.5 23.2368L25.5 22.2368L28.5 16.2368L25 22.2368Z" stroke="#E06016"/>
<path d="M37 12.2368L40.5 13.7368C42.3333 14.4035 46 15.8368 46 16.2368C46 16.6368 51 30.0701 54 36.2368L55 42.2368L51.5 62.7368L56.5 52.7368L58 42.2368V35.2368L52.5 39.7368L50.5 35.7368L49 22.7368L37 15.2368L36 19.7368L30.5 28.7368L23 39.7368L21 53.7368L27 61.2368L37 12.2368ZM37 12.2368L43.5 13.7368M25 53.7368L29 38.2368L25 42.2368L26 56.2368L33 44.2368L36 38.2368L39 21.7368L41.5 21.2368L45 23.7368L46 28.2368L47.5 36.7368L50.5 43.7368L51.5 46.2368L50.5 53.7368L49 63.2368H47.5L53 44.2368L46 44.7368L48 48.7368L49 46.7368L47 37.2368L43.5 33.7368M43.5 33.7368L42.5 26.2368L41.5 24.7368L40 33.2368L39 39.7368L37.5 42.2368H42.5L45 43.2368L44.5 39.7368L42.5 38.2368L41.5 35.7368V40.2368L43.5 33.7368Z" stroke="#E06016" stroke-width="5"/>
<path d="M35 52.7368L33 59.7368L33.5 61.2368L36.5 57.7368L38 55.7368L40 52.7368L42.5 55.2368L42 64.2368L43 62.2368L45 57.2368L44.5 51.2368L38.5 47.7368L35 52.7368Z" stroke="#E4CE0B" stroke-width="5"/>
<path fill-rule="evenodd" clip-rule="evenodd" d="M63 47.3887V29.6665H61.3107C60.2754 29.6665 59.2491 29.703 58.2319 29.7761C57.2147 29.8491 56.1884 30.0043 55.153 30.2417V28.927C55.153 28.0504 55.1349 27.183 55.0986 26.3248C55.0622 25.4483 54.9532 24.5809 54.7716 23.7226C54.3901 21.8235 53.7362 20.0248 52.8099 18.3265C51.8835 16.6283 50.7482 15.1126 49.4041 13.7796C48.0781 12.4283 46.5704 11.287 44.8812 10.3557C43.21 9.42435 41.4209 8.77609 39.5136 8.41087C38.6054 8.22826 37.6972 8.1187 36.789 8.08217C35.8808 8.02739 34.9635 8 34.0371 8H31.6667V11.9443H30.4406C29.8048 11.9443 29.1782 11.9809 28.5606 12.0539C27.9612 12.1087 27.3254 12.273 26.6533 12.547C25.9268 12.8391 25.2729 13.2409 24.6916 13.7522C24.1103 14.2452 23.6108 14.8113 23.193 15.4504C22.7753 16.0896 22.4483 16.7835 22.2122 17.5322C21.9942 18.2809 21.8852 19.0387 21.8852 19.8057V27.6943H24.1467C22.857 28.9909 21.7036 30.4061 20.6864 31.94C19.6873 33.4557 18.8336 35.0535 18.1252 36.7335C17.435 38.4135 16.9082 40.1574 16.5449 41.9652C16.1816 43.7548 16 45.5626 16 47.3887C16 49.5617 16.2815 51.6526 16.8446 53.6613C17.4077 55.67 18.1979 57.5509 19.2151 59.3039C20.2323 61.057 21.4493 62.6457 22.8661 64.07C24.3011 65.5126 25.8904 66.7452 27.6342 67.7678C29.378 68.7904 31.2489 69.5848 33.247 70.1509C35.245 70.717 37.3248 71 39.4864 71C41.6479 71 43.7277 70.717 45.7258 70.1509C47.7239 69.5848 49.5948 68.7904 51.3386 67.7678C53.0823 66.7452 54.6717 65.5126 56.1067 64.07C57.5416 62.6457 58.7677 61.057 59.7849 59.3039C60.8021 57.5509 61.5923 55.67 62.1554 53.6613C62.7185 51.6526 63 49.5617 63 47.3887ZM59.0765 33.5835V47.6352C59.0765 49.1509 58.8949 50.6391 58.5316 52.1C58.1683 53.5609 57.6415 54.967 56.9513 56.3183C56.2792 57.6513 55.4618 58.893 54.4991 60.0435C53.5364 61.2122 52.4557 62.2439 51.2568 63.1387C49.1397 64.6694 47.7251 65.2409 45.3716 66.1517C43.4825 66.7543 41.5299 67.0557 39.5136 67.0557C37.4974 67.0557 35.5357 66.7543 33.6284 66.1517C31.5602 65.5575 30.6549 65.2974 29.8663 64.8358C29.2524 64.4764 28.7092 63.995 27.7432 63.1387C25.1457 61.1665 23.193 58.8109 21.8852 56.0717C20.5774 53.3143 19.9235 50.3013 19.9235 47.0326C19.9235 45.5535 20.0688 44.1017 20.3594 42.6774C20.6682 41.2348 21.1042 39.8378 21.6672 38.4865C22.2303 37.117 22.9024 35.8113 23.6835 34.5696C24.4827 33.3278 25.3637 32.1591 26.3264 31.0635C26.726 30.6252 27.1347 30.2143 27.5525 29.8309C27.9884 29.4291 28.4153 29.0183 28.833 28.5983C29.8684 27.5757 30.8039 26.4252 31.6394 25.147C32.475 23.8504 33.1834 22.49 33.7646 21.0657C34.3641 19.6413 34.8182 18.1804 35.127 16.683C35.4357 15.1674 35.5901 13.6791 35.5901 12.2183V11.9443C37.3884 11.9443 39.1231 12.2457 40.7942 12.8483C42.4653 13.4509 43.982 14.3 45.3443 15.3957C46.7067 16.473 47.8692 17.7604 48.8319 19.2578C49.7946 20.7552 50.4667 22.3987 50.8481 24.1883C50.9753 24.7726 51.0752 25.357 51.1478 25.9413C51.2205 26.5257 51.2568 27.11 51.2568 27.6943V37.5278L51.3386 37.4183C52.3739 36.2678 53.5273 35.3457 54.7988 34.6517C56.0703 33.9396 57.4962 33.5835 59.0765 33.5835ZM25.7814 23.75V19.8057C25.7814 19.3491 25.8723 18.8926 26.0539 18.4361C26.2537 17.9613 26.508 17.5413 26.8168 17.1761C27.1438 16.7926 27.5161 16.4822 27.9339 16.2448C28.3699 16.0074 28.824 15.8887 29.2962 15.8887H29.7049V19.8057C29.7049 20.3535 29.5959 20.8648 29.378 21.3396C29.1782 21.8143 28.8966 22.2343 28.5333 22.5996C28.1882 22.9465 27.7795 23.2296 27.3072 23.4487C26.835 23.6496 26.3264 23.75 25.7814 23.75Z" fill="black"/>
<path d="M30 57.9252V63.905L36.4822 67V65.8821V61.5795C36.7975 60.8597 37.2241 60.2322 37.762 59.697C38.2998 59.1433 38.9304 58.7096 39.6538 58.3958C40.3771 58.0821 39.8207 67 40.6553 67L44.2442 65.2615C45.682 64.3597 46.3632 63.7331 47.0541 62.2003C47.8988 59.8721 48.117 57.627 48 55.9319C47.883 54.2368 47.6847 52.7482 47.0541 51.3086C46.4235 49.8506 45.5611 48.5864 44.4668 47.5159C43.391 46.427 42.1206 45.5688 40.6553 44.9413C39.2087 44.3138 37.66 44 36.0093 44C36.0093 45.1258 35.8609 46.0948 35.5641 46.9068C35.2674 47.7189 34.8964 48.4572 34.4513 49.1216C34.0062 49.7676 33.524 50.3858 33.0046 50.9764C32.4853 51.5486 32.0031 52.1669 31.558 52.8313C31.1128 53.4772 30.7419 54.2063 30.4451 55.0183L30 57.9252Z" stroke="black" stroke-width="4"/>
<path d="M38.5374 64.2365L38.5245 64.2367L38.4939 64.2348C38.4535 64.2322 38.393 64.2279 38.317 64.2214C38.1643 64.2085 37.9525 64.1872 37.717 64.154C37.4776 64.1204 37.2406 64.0779 37.0269 64.0279C37.0557 63.7181 37.107 63.4436 37.1793 63.1344L38.0045 63.6054C38.3503 63.8029 38.6505 63.9437 38.9666 64.0434C39.097 64.0845 39.2236 64.1165 39.3486 64.1428C39.2711 64.1597 39.1878 64.175 39.0995 64.1881C38.9299 64.2132 38.7755 64.2257 38.6638 64.2317C38.6085 64.2346 38.5652 64.2359 38.5374 64.2365ZM37.6266 62.2505L37.2136 62.9912C37.2494 62.8448 37.2895 62.6889 37.3337 62.517C37.3631 62.4028 37.3943 62.2815 37.4273 62.1511C37.6351 61.8489 37.8017 61.6462 38.0237 61.4545C38.0221 61.458 38.0204 61.4616 38.0188 61.4651C37.914 61.6942 37.8144 61.8934 37.7412 62.0349C37.7047 62.1054 37.6751 62.161 37.6551 62.1982L37.6327 62.2394L37.6276 62.2487L37.6268 62.25L37.6267 62.2502L37.6267 62.2503L37.6266 62.2504L37.6266 62.2505ZM38.5503 64.2382C38.5504 64.2382 38.5504 64.2382 38.5503 64.2382L38.5503 64.2382Z" stroke="#E7E8E9" stroke-width="2"/>
</svg>
